<svg width="42" height="42" viewBox="0 0 42 42" fill="none" xmlns="http://www.w3.org/2000/svg">
<g clip-path="url(#clip0_108_1140)">
<path d="M38.3248 32.8183L37.9281 32.4683C36.8028 31.4657 35.8178 30.3159 34.9998 29.05C34.1064 27.303 33.5709 25.3951 33.4248 23.4383V17.675C33.4325 14.6015 32.3176 11.6311 30.2896 9.32163C28.2616 7.01221 25.4601 5.52284 22.4114 5.13333V3.62833C22.4114 3.21526 22.2473 2.8191 21.9553 2.52701C21.6632 2.23492 21.267 2.07083 20.8539 2.07083C20.4409 2.07083 20.0447 2.23492 19.7526 2.52701C19.4605 2.8191 19.2964 3.21526 19.2964 3.62833V5.15666C16.2751 5.57425 13.5074 7.07263 11.5061 9.37429C9.50471 11.6759 8.40529 14.6249 8.41144 17.675V23.4383C8.26532 25.3951 7.72985 27.303 6.83644 29.05C6.03247 30.3127 5.06333 31.4624 3.95477 32.4683L3.55811 32.8183V36.1083H38.3248V32.8183Z" fill="white"/>
<path d="M17.8735 37.3333C17.9758 38.0729 18.3423 38.7504 18.9052 39.2408C19.4681 39.7312 20.1895 40.0013 20.936 40.0013C21.6826 40.0013 22.404 39.7312 22.9669 39.2408C23.5298 38.7504 23.8962 38.0729 23.9985 37.3333H17.8735Z" fill="white"/>
</g>
<defs>
<clipPath id="clip0_108_1140">
<rect width="42" height="42" fill="white"/>
</clipPath>
</defs>
</svg>
