<svg width="49" height="49" viewBox="0 0 49 49" fill="none" xmlns="http://www.w3.org/2000/svg">
<path d="M14.2915 36.75V34.7083C14.2915 32.0009 15.367 29.4044 17.2815 27.49C19.1959 25.5755 21.7924 24.5 24.4998 24.5M24.4998 24.5C27.2073 24.5 29.8038 25.5755 31.7182 27.49C33.6327 29.4044 34.7082 32.0009 34.7082 34.7083V36.75M24.4998 24.5C26.1243 24.5 27.6822 23.8547 28.8309 22.706C29.9795 21.5574 30.6248 19.9995 30.6248 18.375C30.6248 16.7505 29.9795 15.1926 28.8309 14.044C27.6822 12.8953 26.1243 12.25 24.4998 12.25C22.8754 12.25 21.3175 12.8953 20.1688 14.044C19.0201 15.1926 18.3748 16.7505 18.3748 18.375C18.3748 19.9995 19.0201 21.5574 20.1688 22.706C21.3175 23.8547 22.8754 24.5 24.4998 24.5ZM2.0415 36.75V34.7083C2.0415 33.0839 2.68681 31.526 3.83547 30.3773C4.98414 29.2286 6.54205 28.5833 8.1665 28.5833M8.1665 28.5833C9.24947 28.5833 10.2881 28.1531 11.0539 27.3874C11.8196 26.6216 12.2498 25.583 12.2498 24.5C12.2498 23.417 11.8196 22.3784 11.0539 21.6126C10.2881 20.8469 9.24947 20.4167 8.1665 20.4167C7.08354 20.4167 6.04492 20.8469 5.27915 21.6126C4.51338 22.3784 4.08317 23.417 4.08317 24.5C4.08317 25.583 4.51338 26.6216 5.27915 27.3874C6.04492 28.1531 7.08354 28.5833 8.1665 28.5833ZM46.9582 36.75V34.7083C46.9582 33.0839 46.3129 31.526 45.1642 30.3773C44.0155 29.2286 42.4576 28.5833 40.8332 28.5833M40.8332 28.5833C41.9161 28.5833 42.9548 28.1531 43.7205 27.3874C44.4863 26.6216 44.9165 25.583 44.9165 24.5C44.9165 23.417 44.4863 22.3784 43.7205 21.6126C42.9548 20.8469 41.9161 20.4167 40.8332 20.4167C39.7502 20.4167 38.7116 20.8469 37.9458 21.6126C37.18 22.3784 36.7498 23.417 36.7498 24.5C36.7498 25.583 37.18 26.6216 37.9458 27.3874C38.7116 28.1531 39.7502 28.5833 40.8332 28.5833Z" stroke="white" stroke-width="3" stroke-linecap="round" stroke-linejoin="round"/>
</svg>
