<svg width="16" height="26" viewBox="0 0 16 26" fill="none" xmlns="http://www.w3.org/2000/svg">
<path d="M2.96006 3.18541C3.90633 2.23914 5.51911 1.5 7.95171 1.5C10.4363 1.5 12.0757 2.09179 13.0863 3.00456C14.0679 3.9199 14.5 5.22286 14.5 6.43863C14.5 9.49757 12.756 11.1674 11.1781 12.556C11.1013 12.6236 11.0231 12.6918 10.944 12.7608C10.2709 13.3481 9.53165 13.9931 9.00241 14.8106C8.45515 15.6559 8.1615 16.6128 8.08306 17.8159H7.87179C8.10297 15.1711 9.64172 13.6483 11.0674 12.3937C11.1688 12.3045 11.2735 12.2138 11.3804 12.1213C12.025 11.5631 12.747 10.938 13.2714 10.1692C13.9524 9.17078 14.2807 8.00482 14.2807 6.43863C14.2807 5.24583 13.8908 4.10625 12.8827 3.19894L11.8793 4.31388L12.8827 3.19894C11.8755 2.29245 10.3087 1.71932 7.95171 1.71932C5.44239 1.71932 4.0802 2.45844 3.15664 3.382C2.65773 3.88091 2.33047 4.44654 2.11094 5.00727L1.83966 4.97201C2.07111 4.34361 2.42403 3.72144 2.96006 3.18541ZM8.06137 24.2545H7.84205V24.0352H8.06137V24.2545Z" fill="#6165D7" stroke="#6165D7" stroke-width="3"/>
</svg>
