<svg width="37" height="38" viewBox="0 0 37 38" fill="none" xmlns="http://www.w3.org/2000/svg">
<g clip-path="url(#clip0_108_1130)">
<path fill-rule="evenodd" clip-rule="evenodd" d="M16.1877 6.33333C13.53 6.33333 10.9811 7.41763 9.10186 9.34769C7.22259 11.2778 6.16683 13.8955 6.16683 16.625C6.16683 19.3545 7.22259 21.9722 9.10186 23.9023C10.9811 25.8324 13.53 26.9167 16.1877 26.9167C18.8454 26.9167 21.3942 25.8324 23.2735 23.9023C25.1527 21.9722 26.2085 19.3545 26.2085 16.625C26.2085 13.8955 25.1527 11.2778 23.2735 9.34769C21.3942 7.41763 18.8454 6.33333 16.1877 6.33333ZM3.0835 16.625C3.08367 14.4789 3.58356 12.364 4.54144 10.4567C5.49932 8.54944 6.88743 6.90506 8.58995 5.66079C10.2925 4.41652 12.26 3.60843 14.3285 3.30395C16.3969 2.99948 18.5063 3.20744 20.4806 3.91048C22.4548 4.61353 24.2368 5.79127 25.6777 7.34546C27.1187 8.89964 28.1769 10.7852 28.764 12.8448C29.3511 14.9044 29.4501 17.0784 29.0527 19.1853C28.6554 21.2922 27.7732 23.271 26.4798 24.9565L32.11 30.7388C32.3908 31.0375 32.5462 31.4374 32.5427 31.8525C32.5392 32.2677 32.3771 32.6648 32.0912 32.9584C31.8054 33.2519 31.4187 33.4185 31.0145 33.4221C30.6103 33.4257 30.2208 33.2661 29.9301 32.9777L24.2999 27.1953C22.3676 28.7597 20.0455 29.7337 17.5994 30.0059C15.1533 30.2781 12.6819 29.8376 10.4682 28.7347C8.2545 27.6318 6.38784 25.9111 5.08185 23.7695C3.77587 21.6279 3.08333 19.1519 3.0835 16.625ZM14.646 11.0833C14.646 10.6634 14.8084 10.2607 15.0975 9.96375C15.3867 9.66681 15.7788 9.5 16.1877 9.5C18.0276 9.5 19.7922 10.2507 21.0932 11.5869C22.3942 12.9231 23.1252 14.7353 23.1252 16.625C23.1252 17.0449 22.9627 17.4477 22.6736 17.7446C22.3845 18.0415 21.9924 18.2083 21.5835 18.2083C21.1746 18.2083 20.7825 18.0415 20.4934 17.7446C20.2043 17.4477 20.0418 17.0449 20.0418 16.625C20.0418 15.5752 19.6358 14.5684 18.913 13.826C18.1902 13.0837 17.2099 12.6667 16.1877 12.6667C15.7788 12.6667 15.3867 12.4999 15.0975 12.2029C14.8084 11.906 14.646 11.5033 14.646 11.0833Z" fill="#6165D7"/>
</g>
<defs>
<clipPath id="clip0_108_1130">
<rect width="37" height="38" fill="white"/>
</clipPath>
</defs>
</svg>
