<svg width="49" height="49" viewBox="0 0 49 49" fill="none" xmlns="http://www.w3.org/2000/svg">
<circle cx="24.06" cy="24.06" r="22.56" stroke="white" stroke-width="3"/>
<path d="M24.1272 8.51344C20.4439 8.51344 17.4303 12.2637 17.4303 16.8846C17.4303 21.5054 20.4439 25.2557 24.1272 25.2557C27.8105 25.2557 30.8241 21.5054 30.8241 16.8846C30.8241 12.2637 27.8105 8.51344 24.1272 8.51344ZM17.1289 25.2557C13.5796 25.4231 10.7334 28.3362 10.7334 31.9526V35.301H37.521V31.9526C37.521 28.3362 34.7083 25.4231 31.1254 25.2557C29.3173 27.2982 26.8394 28.6041 24.1272 28.6041C21.4149 28.6041 18.9371 27.2982 17.1289 25.2557Z" fill="white"/>
</svg>
