<svg width="72" height="72" viewBox="0 0 72 72" fill="none" xmlns="http://www.w3.org/2000/svg">
<circle cx="36" cy="36" r="33.5" stroke="#6258DC" stroke-width="5"/>
<path d="M36.0982 12.7383C30.587 12.7383 26.0779 18.3497 26.0779 25.2637C26.0779 32.1777 30.587 37.789 36.0982 37.789C41.6093 37.789 46.1185 32.1777 46.1185 25.2637C46.1185 18.3497 41.6093 12.7383 36.0982 12.7383ZM25.627 37.789C20.3162 38.0395 16.0576 42.3984 16.0576 47.8093V52.8195H56.1388V47.8093C56.1388 42.3984 51.9302 38.0395 46.5694 37.789C43.8639 40.8452 40.1564 42.7992 36.0982 42.7992C32.04 42.7992 28.3325 40.8452 25.627 37.789Z" fill="#6258DC"/>
</svg>
